<svg xmlns="http://www.w3.org/2000/svg" width="16" height="16" fill="none"><g filter="url(#a)"><path fill="#E0E7FF" d="M2.341 3.902h4.683L9.366 8l-2.342 4.098H2.341L0 8l2.341-4.098Z"/></g><path stroke="#09090B" d="M6.733 4.402 8.79 8l-2.056 3.598H2.632L.576 8l2.056-3.598h4.101Z"/><g filter="url(#b)"><path fill="#E0E7FF" d="M8.976 7.805h4.682L16 11.902 13.659 16H8.976l-2.342-4.098 2.342-4.097Z"/></g><path stroke="#09090B" d="m13.368 8.305 2.055 3.598-2.056 3.597h-4.1L7.21 11.903l2.056-3.598h4.102Z"/><g filter="url(#c)"><path fill="#E0E7FF" d="M8.976 0h4.682L16 4.098l-2.341 4.097H8.976L6.634 4.098 8.976 0Z"/></g><path stroke="#09090B" d="m13.368.5 2.055 3.598-2.056 3.597h-4.1L7.21 4.098 9.266.5h4.102Z"/><defs><filter id="a" width="9.366" height="8.195" x="0" y="3.902" color-interpolation-filters="sRGB" filterUnits="userSpaceOnUse"><feFlood flood-opacity="0" result="BackgroundImageFix"/><feBlend in="SourceGraphic" in2="BackgroundImageFix" result="shape"/><feColorMatrix in="SourceAlpha" result="hardAlpha" values="0 0 0 0 0 0 0 0 0 0 0 0 0 0 0 0 0 0 127 0"/><feOffset dx="1" dy="2"/><feComposite in2="hardAlpha" k2="-1" k3="1" operator="arithmetic"/><feColorMatrix values="0 0 0 0 0 0 0 0 0 0 0 0 0 0 0 0 0 0 0.25 0"/><feBlend in2="shape" result="effect1_innerShadow_3_24"/></filter><filter id="b" width="9.366" height="8.195" x="6.634" y="7.805" color-interpolation-filters="sRGB" filterUnits="userSpaceOnUse"><feFlood flood-opacity="0" result="BackgroundImageFix"/><feBlend in="SourceGraphic" in2="BackgroundImageFix" result="shape"/><feColorMatrix in="SourceAlpha" result="hardAlpha" values="0 0 0 0 0 0 0 0 0 0 0 0 0 0 0 0 0 0 127 0"/><feOffset dx="1" dy="2"/><feComposite in2="hardAlpha" k2="-1" k3="1" operator="arithmetic"/><feColorMatrix values="0 0 0 0 0 0 0 0 0 0 0 0 0 0 0 0 0 0 0.25 0"/><feBlend in2="shape" result="effect1_innerShadow_3_24"/></filter><filter id="c" width="9.366" height="8.195" x="6.634" y="0" color-interpolation-filters="sRGB" filterUnits="userSpaceOnUse"><feFlood flood-opacity="0" result="BackgroundImageFix"/><feBlend in="SourceGraphic" in2="BackgroundImageFix" result="shape"/><feColorMatrix in="SourceAlpha" result="hardAlpha" values="0 0 0 0 0 0 0 0 0 0 0 0 0 0 0 0 0 0 127 0"/><feOffset dx="1" dy="2"/><feComposite in2="hardAlpha" k2="-1" k3="1" operator="arithmetic"/><feColorMatrix values="0 0 0 0 0 0 0 0 0 0 0 0 0 0 0 0 0 0 0.25 0"/><feBlend in2="shape" result="effect1_innerShadow_3_24"/></filter></defs></svg>